<svg width="378" height="223" viewBox="0 0 378 223" fill="none" xmlns="http://www.w3.org/2000/svg">
<g clip-path="url(#clip0_959_1763)">
<path d="M256.526 11.1863L111.558 11.1553C56.1298 11.1434 11.1865 55.986 11.1746 111.314C11.1628 166.642 56.0869 211.504 111.516 211.516L256.483 211.547C311.912 211.559 356.855 166.716 356.867 111.388C356.879 56.06 311.955 11.1981 256.526 11.1863Z" fill="#E21E27"/>
<path d="M255.485 0.0546471C315.496 0.0674856 364.295 49.9967 364.284 111.379C364.271 172.762 315.443 222.689 255.433 222.677L108.848 222.646C48.8285 222.633 0.0106869 172.669 0.0238157 111.301C0.0382891 49.9344 48.8846 0.010448 108.896 0.0232865L255.485 0.0546471ZM207.626 116.377C200.126 152.081 175.596 168.734 129.621 168.724L38.0065 168.704C54.5735 190.004 80.1381 203.7 108.761 203.706L255.346 203.738C283.968 203.743 309.523 190.077 326.1 168.776L248.125 168.759L248.136 168.749L207.626 116.377ZM280.992 104.487L329.719 163.787C339.82 148.871 345.755 130.781 345.76 111.303C345.764 90.7424 339.165 71.7226 328.022 56.3471L280.992 104.487ZM69.8812 127.373L122.331 127.384C137.837 127.387 142.529 120.822 146.002 108.185C149.436 95.6887 140.81 90.8385 130.214 90.8357L82.8915 90.8256L69.8812 127.373ZM108.795 18.7977C81.2997 18.7926 56.6292 31.403 40.0309 51.2696L142.871 51.2916L142.876 51.2968C179.275 51.3046 206.699 60.7858 209.519 92.1523L247.837 51.314L324.12 51.3303C307.53 31.4645 282.873 18.8356 255.385 18.8291L108.795 18.7977Z" fill="white"/>
</g>
<defs>
<clipPath id="clip0_959_1763">
<rect width="377.022" height="222.623" fill="white" transform="translate(0.0476269)"/>
</clipPath>
</defs>
</svg>
