<svg width="106" height="63" viewBox="0 0 106 63" fill="none" xmlns="http://www.w3.org/2000/svg">
<g clip-path="url(#clip0_556_113)">
<path d="M71.4431 3.1152L31.0698 3.10657C15.6331 3.10326 3.11647 15.5918 3.11317 31.0006C3.10988 46.4093 15.6212 58.9033 31.0579 58.9066L71.4311 58.9152C86.8679 58.9185 99.3845 46.4299 99.3878 31.0212C99.3911 15.6124 86.8798 3.11851 71.4431 3.1152Z" fill="#E21E27"/>
<path d="M72.9016 0.0155933C90.0254 0.0192567 103.95 13.9245 103.947 31.0193C103.943 48.1143 90.0107 62.019 72.887 62.0156L31.0597 62.0066C13.9334 62.003 0.00338416 48.0879 0.00704051 30.997C0.0110805 13.9066 13.9491 0.00298128 31.073 0.00664468L72.9016 0.0155933ZM59.2454 32.4111C57.1052 42.3547 50.1059 46.9923 36.987 46.9894L10.8453 46.9839C15.5727 52.9159 22.8674 56.7302 31.0348 56.7319L72.8621 56.7409C81.0293 56.7425 88.3214 52.9365 93.0514 47.0042L70.8017 46.9995L70.8047 46.9967L59.2454 32.4111ZM80.18 29.0999L94.0842 45.6148C96.9664 41.4607 98.6599 36.4228 98.6612 30.9981C98.6624 25.2721 96.7793 19.9751 93.5996 15.693L80.18 29.0999ZM19.9406 35.4731L34.9069 35.4763C39.3314 35.4773 40.6702 33.649 41.6612 30.1295C42.6412 26.6493 40.1796 25.2985 37.1562 25.2977L23.6529 25.2949L19.9406 35.4731ZM31.0443 5.23529C23.1986 5.23383 16.159 8.74575 11.4228 14.2785L40.7678 14.2848L40.7691 14.2863C51.1555 14.2885 58.9807 16.929 59.7856 25.6646L70.7192 14.2912L92.4863 14.2959C87.7525 8.76325 80.7166 5.24608 72.8731 5.24424L31.0443 5.23529Z" fill="white"/>
</g>
<defs>
<clipPath id="clip0_556_113">
<rect width="105" height="62" fill="white" transform="translate(0.0136719)"/>
</clipPath>
</defs>
</svg>
