<?xml version="1.0" encoding="UTF-8"?>
<svg xmlns="http://www.w3.org/2000/svg" viewBox="0 0 611.02 764.03">
  <defs>
    <style>
      .cls-1 {
        fill: #ee2724;
      }

      .cls-1, .cls-2 {
        stroke: #fff;
        stroke-miterlimit: 10;
      }

      .cls-2 {
        fill: #fff;
      }
    </style>
  </defs>
  <g id="Layer_1" data-name="Layer 1">
    <path class="cls-2" d="M75.98,687.78l1.07-3.99-.99-1.58,1.79-6.42-1.13-5.9-2.12-5.73-1.26-5.91.51-7.53,1.56-6.24,1.92-5.74,1.46-6.08-14.16-2.55-1.58.17-.5,1.94-.34,9.03-.84,1.17-1.3.26-1.7,1.93-1.83,2.61-2.06,1.21-2.06-.47-1.82-2.56-1.52-5.8.18-5.58.84-5.65.5-6.06,2.49-4.58,5.54-.84,5.6,1.65,2.82,2.97-1.79.48-1.44,1.21-2.32,3.09.41,2.61,7.93,1.17,7.26,1.74,2.69-1.09-.3-4.44-2.45-7.96-1.71-10.02-1-10.01.26-2.69,1.19-3.3.27-2.02-.23-3-1.5-5.88-1.2-10.6-.98-5.02-1.92-4.51-3.35-2.67-4.78-1.18-8.88-.24-6.4-2.03-5.43-5.11-12.08-18.15.11-1.67,2.82-.53v-1.48l-2.56-1.05-3.06-.26-2.98.78-2.31,2.01-1.53,3.32.4,2.22,3.96,4.26-1.24.3-.81.57-1.69,2.36,3.08.57,3.62,2.37,3.03,3.52,1.26,4.07-1.71.66-15.94-13.34-3.25-1.92-7.8-1.45-2.05-2.08-.16-3.5,7.49-20.15,2.51-9.15,1.67-9.74.23-9.61-6.36-46.7-.65-2.42-.39-.49-.13-1.14.13-1.11.39-.5.8.27.36.61.23.61.39.27.87,1.26,3.32,18.27,2.38,6.3.35,2.63-.31,2.27-1.3,3.26-.29,2.65.46,3.26,1.14.67,5.98-3.38,6.36-5.09,3-1.07,5.19-4.12,5.31-5.6.75-3.87-.86-4.13-1.86-4.03-2.12-3.64-4.99-6.52v-7.4l-1.52-8.57-3.42-5.48-4.62-3.34-10.27-4.72-2.79-.38-1.2,2.01.13,10.21-.23,4.84-.81,5.42.49,3.97-.36,1.53-1.95-.62-.55-1.26-.57-2.49-.5-2.88-.61-17.34.41-5.4,3.22-14.97.42-5.64-1.52-83.41.56-4.06.95-4.17,5.98-20.96,2.7-6.51,1.98-3.15.81.64.53,2.13,1.22,1.21-.1,1.72-2.99,7.88-1.04,2.16v1.66l.82.83.9.44,2.41.24.46,1.04.52,2.34.7,2.34,1.08,1.05,5.46,1,1.46,1.02-1.92,1.16.49,2.23-.36,3.9.78,2.28,1.2.95,1.04-.61.38-1.64-.8-2.02v-1.66l4.19-1.39,6.47-.18,5.92,1.22,2.58,2.83,1.24.4,6.59,5.38,1.84-.85,1.71-2.1,1.43-2.71,1-2.61h.82l4.03,11.38.11,1.85-.51,1.02.21,2.28.87,2.26,2.18,1.77,2.6,3.4,1.53.96,2.28-.04,8.13-1.77.88-.44.72-1.21.47-1.86.18-2.25.03-3.53.17-2.39.78-4.96.57-1.39.7-.56.28-.79-.66-2.08-4.13-3.31-1.33-.13-1.01-.58-.61-1.24-.19-2.1-.6-2.15-2.27-1.22.05-2.49,1.77-1.63,6.09-.41,8.59-14.69,2-1.2,5.47-1.72,7.35-.33.26-.53-3.19-1.21-5.82-.2-1.37-1.35,1.24-4.34,1.95-3.81,1.58-2.06,4.24-3.19,6.3-6.23,2.47-.58,1.45.3,2.46,1.24,1.5.3,1.56-.44.81-1.01.65-1.16,1.06-.89,2.34-.09,3.06,1.01,2.64,2.02,1.14,2.95.79,5.7,1.87,3.38,2.15,2.39,1.64,2.74,1.76,5.12-3.71.93-3.91,6.31-3.38.92v1.81l.54,2.21-1.44,2.14-3.64,3.79-1.25,3.43-.15,3.07.55,7.7,1.01,2.34,2.19-.39,2.19-2.59,1.78-7.93,1.97-.54,2.41.48,2.1-.46-.84-2.32-1.07-.86-1.28.3-1.35,1.09,1.01-2.65,1.04-1.89.93-2.09.65-3.31h.91l-.8,5.45,3.48.83,4.75-.83,2.99.41,1.81,1.24,2.03-.41,1.83.19,1.21,3.06-.39,2.38-3.06,4.51-1.21,3.18,1.45.59.28,1.06.09,1.47.91,1.84,1.3,1.33,3.34,1.97.54,1.01.32,1.31.56,1.04,1.3.12,1.92-4.05.81-1.21,1.89,1.77,1.63-1.93-.04-3.06-2.98-1.6-4.13,2.48-.26.74-.61.22-1.41-.13-1.14-.66-.08-1.4.4-1.16.36-.09.24-9,2.19-7.76,1.19-6.87v-.05s-2.71-6.28-2.71-6.28l-1.3-1.48-.69-.55-2.64.37-5.35,2.49-1.32,1.9-2.88,1.87-2.82.18-1.17-3.11,1.49-2.94,6.13-3.77,1.39-4.09.76-3.4-.27-1.68-3.33-1.19-1.37-1.21-1.16-1.61-.91-1.69-.7-1.6-.76-2.47-.5-2.9.14-3.01.68-.8,3.06-4.85.35-1.15.63-1.26-.11-2.83-.63-2.8-.84-1.28-1.56-.33-1.18-.84-2.15-2.33,2.48-6.1,2.49-4.85,2.7-3.95,4.13-4.28.93-.56,1-.34,1.16-.1.7-.78.74-3.47.43-.78,19.75-6.68,4.4.14,15.54,6.54v1.83l-1.7,1.15-.12,1.51,1.03,1.43,1.79.93,1.82-.17,1.3-1.26,4.86-7.77,2.2-4.43,2.44-3.5,5.22-1.94,4.4-2.82,6.37,1.68,14.21-1.68-7.88-7.39-3.99-1.52-2.7-2.3-1.43-.53-1.07.6-4.68,6.42-2.56,2.7-2.84,1.36-2.49-1.94-2.41-2.46-2.54.69-4.66,4.36-5.37,2.28-11.56.18-30.47,11.07-2.63.26-2.53-1.15-14.9-12.64.84,3.23-1.07,1.66-4.39,1.82-3.25,2.47-1.7.84-2.25.04.83-1.54-2.4-1.55-2.3.52-2.28,1.85-2.2,2.52-2.16-.24-2.73,2.7-2.32,2.93-.99.47-1.14-3.28-2.64-1.27-3.03.33-2.28,1.55,1.95,2.12-4.83,4.55-6.61,3.52-4.75-1.41-3.12.69-3.12,1.44-1.43,1.77-.73,4.74-1.79,2.88-2.1,2.19-1.73,2.7-.76,6.96-.15.56-.23,2.11-.62,1.22-.88,1.01-4.23,6.61-3,.27-1.43.68-.61,1.4-1,.98-2.19.89-2.19,1.67-1,3.19,1.14,8.25-.13,3.86-2,2.25v1.5l5.32-.54,1.22.54,1,2.96-.8,2.07-1.73,1.23-1.73.39-1.56-.5-3.12-2.28-1.72-.53-1.59.48-2.67,2.19-1.69.65v1.81l6.35-1.81,1.91.62,2.8,2.21,1.3.48,9.4-4.12,1.96.8.37,1.78-.37,4.62v2.04l2.01,3.22.9,2.32-1.97,3.56-1.37,1.71-1.79.78-1.89.3-1.17.77.05,1.03,1.67,1.09-2.7.06-3.71-3.45-3.26-4.44-1.41-2.87-1.21-3.61-2.99-2.91-3.74-1.95-3.41-.71-2.36-1.27-2.82-3.08-2.62-3.76-1.73-3.34-1.49-8.77-.84-1.35-1.81-.63-3.75-2.52-2.21-.18,1.92,8.97.68,5.26-.32,3.29-1.98.34-1.01-5.11-.28-11.23,1.56-10.05,2.99-7.51,23.89-39.29,7.17-7.52,11.01-17.61,4.23-4.05,4.77.09,11.1,3.96,6.23.39,12.04-2.78,5.35-2.78,6.39-7.16,2.39-1.1,33.32,4.9,12.1-1.46,12.06-4.52,11.41-7.77,10.05-11.31,28.65-53.51,5.06-7.6,9.18-10.34,4.6-8.92,1.77-1.25,3.18-4.7,6.45-1.31,12.29.91,11.98-2.06,10.91-4.9,9.46-7,16.23-16.97,8.87-6.71,3.6-1.4,3.99-.44,3.86.92,3.19,2.62-7.26,2.78-6.91,6.74-10.92,17.05-4,14.94,3.72,11.21,6.74,10.29,5.01,12.09-3.88,10.9.07,12.9,2.82,25.29-2.28,3.69-6.81,5.07-3.21,4.01-4.7,9.95-2.12,6.68-1.53,10.57-3.31,11.8-1.6,3.9-1.13,1.7-1.08.96-1.45.45-6.29-.09-1.93.5-2.43.74-11.15-7.6-8.26-8.99-5.5-2.27-4.44-4.6-3.29-1.05-2.69,1.53-3.77,6.21-2.56.64,2.47.31,2.81-3.65,2.34-1.68,2.37-1.19,2.75,1.18,13.13,13.97,4.36,2.18,5.11,4.71,2.93,1.07,10.75.27,2.48,1.4-3.74,4.69-.81,2-.64,3.23-.73,6.66-.46,1.79.96,4,1.45,12.45.57,9.8.94,5.17,3.27,10.32,1.13,1.62,1.3,1.42.31,1.6-1.83,2.14-1.08.08-3.13-1.47-1.68-.41h-5.99l-2.09.94-2.39,2.37-2.24-2.4-2.51-1.9-2.88-.56-3.36,1.55-2.97,2.39-1.25.5-2.15.42-2.02,1-4.11,3.39-4.88,1.78-6.04,4.56-18.6,2.7v1.66l6.05,1.09,20-6.21,4.45-2.8,1.95-.52.45-.52.08-1.14.26-1.14.99-.52,1.08.29,1.78,1.24.83.28,1.43-.36,1.64-.98,1.35-1.36.57-1.59.89-3.28,2.1-.49,4.37,1.43-.34.89-.67,2.3,2.32.45,6.49,1.27,5.54-.34,3.57-2.21,3.19-1.21,2.47,5.35.65,8.03-2.31,6.89-8.97,6.94-6.61,7.53-1.19.56-.94,7.87-.45,2.2,1.01,2.75-.62,3.47-1.51,3.2-1.62,1.97,4.1-.22,1.53-1.28-.16-9.16.42-6.64,1.34-3.22,5.58-4.26,4.41-5.97,2.35-1.6,2.74,1.77.48,1.54.71,5.19.13,1.55.59.8,3.95,3.33,9.99,5.75,10.87,1.29,31.64-5.03,4.42.51,4.36,2.44,1.98,2.28,4.29,7.61,8.26,8.4v1.5l-3.09,3.06-1.66,5.55-.66,6.41-.12,5.68-1.46,5.35-12.26,17.58-6.21,4.31-2.34,3.28-.71,3.18.35,7.46-1.86,7.29-4.21.88-4.64-3.43-3.1-5.56,3.42-.59,1.41-1.3.69-3.04-.37-3.2-1.34-.98-1.73-.31-1.59-1.23-3.2-1.15-3.31,3.96-3,5.23-4.27,5.04.93,5.58,1.76,6.1.59,4.03-1.3,1.67-2.12,1.04-2.26.26-1.66-.61-1.34-1.99-1.32-4.59-.97-2.34,1.06-1.14,2.25-1.65,1.24-.49-.95-2.67-1.17-1.28-5.51-1.67-1.21.23-2.97,1.96-3.73.73-2.3-1.87-2.03-3.36-2.87-3.69,2.97-.3,4.45-3.64,2.5-.96,1.89,1.41,2.31,2.5,2.28.93,1.79-3.35-2.25-3.83.15-2.99,3.9-7.95-1.8.03-1.92-.78-1.76-1.43-1.33-1.84-1.46-1-3.45,1.62-1.83-1.53-.5,3.22-.73,2.01-1.17,1.05-1.85.29-.97,1.29-3.58,7.89-3.25,4.22-7.2,5.97-3.23,4.54-1.86,5.62.89,3.51,2.2,3.27,2.08,4.92.88,6.05-.55,4.61-1.64,4.18-2.41,4.75,3.2-1.57,2.34-.29.64,1.69-3.34,7.52-.32,3.05.22,6.02-.12,4.16-.19,1.83-.52,2.01-3.2,4.21-.51,1.68h-.65s-1.44.94-1.44.94l-1.55,1.47-.91,1.42.66.61.96,2.34.51,2.51-1.17,1.72-.43,1.16-.69,1.17-1.26.52-1.64-.44-1.25-1.14-2.07-3.3-.6-1.54-.39-1.76-.57-1.76-1.23-1.57-1.69-.6-12.94.6-1.72.6-1.07,1.41-.83,1.62-.92,1.22-3.46,1.39-7.02-.43-3.24.8,3.35,3.74,19.05,4.23,1.34,1.06-.48,2.5-2.2,4.84-1.11,4.14.32,1.82,1.85.43,3.48-.09v1.64l-5.46,3.13-1.59,2.66,1.52,3.9-.5.4-1.24,1.36-3.13-1.97-14.63,4.31-6.66,3.61-3.93.36-8.16-3.24-4.7-4.18-1.21-.66-13.79-.08-3.12-1.54-.42.91-.25.66-.14.71-.1,1.11,2.77,1.34,9.58.14,1.73,1.07,6.89,7.15,1.42,2.81.96,2.54,1.34,1.85,2.64.72h12.74l-2.18,2.7-6.91,5.5-3.71,4.8-1.8,1.24-3.1.41-1.13,1.02-.24,2.21-.04,2.21-.45,1.01-8.39,2.12-3.04,2.2-1.84.51-1.6-.37-2.99-1.3-1.76.07.35.97.56.64-1.93,2.75-4.93,1.63-2.24,2.06,2.34,1.48,2.5-.16,6.56-1.73,1.21-.74,1.28-.35,7.69,4.2.54,2.65-.57,3.22-1.46,2.81-1.82,1.25-4.51.92-1.95,1.03.71,2.61,1.64,3.56.48,1.86-.37,2.64-.78,2.03.21,1.75,2.7,1.73,1.65,1.54,1.57,2.18.4,2.3-1.82,1.85v1.75l1.37,1.55,4.93,8.51,1.64.71,1.58,1.53.56,3.84-.5,2.73-.94,1.69-.88,2.06-.41,3.77-.71,1.71-1.71,1.2-2.1.7-1.82.24-7.82-1.46-1.8.49-1.11,1.25-.88,1.55-1.2,1.5-3.21,2.03-1.95.82-1.7.32-1.07,1.01v2.06l1.11,1.71h2.3v1.6l-3.92-.13-1.82.47-1.63,1.41,1.35,1.01,1.67.4,3.85.04,1.77.85,1.93,2.1,3.17,5.01-3.45,4.56-2.28,2.16-2.47,1.36-6.08,1.24-2.41,1.82,1.14,3.3,1.65.05,7.54-3.07,3.39.23,1.14-.23.98-.76.93-1.12,1.1-1.02,1.52-.44,2.88,1.23,5.37,5.98,2.76,2.33,7.32,1.99,1.79,1.33,1.02,3.39,2.95,17.63.33,1.05-.22.71-1.28,1.02-1.98.06-1.87-1.13-1.54-.22-1.06,2.88,1.67.56,1.58,1,1.32,1.38.89,1.68.51,1.95.26,2.69-.57,2.38-1.96,1.04-1.55-1-1.9-4.34-1.16-1-5.54.42-1.72-.42-2.5-1.49.18-.92,1.08-.89.24-1.45-2.35-3.45-.88-2.09.95-.94,3.55-1.39-.72-2.66-3.17-1.84-3.76,1.15-.74,1.38-1.76,4.72-1.5,2.58-.83,1.77-.62.78-1.01.33-2.16-.32-.93.78-2.28,2.69-5.55,4.75-1.8,2.85-.88,4.88h.16s-.08.07-.08.07l-1.97.67-2.26-.26-2.68-2.55-2.41.55-1.46,1.32-1.9.53-1.29,1.35-2,.37-9.72-.04-2.35-.96-.98-2.75-.39-3.23-.61-2.33-2.23-1.99-28.24-6.71-10.46-4.32-10.64-1.85-3.11.48-9.07,3.43-4.91-.22-4.67-1.47ZM500.06,725.84l-1.52,1.7-1.36.56-1.18.79-1.03,2.47,5.26,2.35-.51,4.99-4.25,4.87-5.94,1.97-20.72-4.58-6.72,1.57-6.37,3.01-5.04,4.71-3-.52-12.4-7.42-8.13-7.15-14.64-9.4-6.6-1.47-7.13-3.36-7.21-1.74-2.83-2.54-1.34-3.5.87-3.91,3.34-1.97,4.07.66,3.78-.3,2.46-4.84-2.16-.81-1.81-1.41-7.08-8.89-.86-1.56v-3.99l1.81-3.68,5.54-6.72,1.89.93,19.12-3.97,3.24,1.55,6.32,5.14,2.34,1.1,2.37,1.99,4,8.83,3.17,1.99,3.2.74,23.7,13.49-1.28-4.03-1.54-2.51-.11-2,2.93-2.53h3.64l3.23-1.51,1.32-.21-1.2-2.52-.33-2.9.21-2.94.41-2.6,10.17,9.32.82,3.36,3.15,4.11,2,1.58,2.21.64-1.34,1.28-.56.3,1.95,4.13,6.67,5.57,1.45,2.22.36,3.78.55,1.7v1.35l-1.37,2.7ZM314.28,686.97l2.19,2.14,2.54,1.6,1.8,2.11-.07,3.64,1.26.91,1.39.68-10.45,2.43-2.86,3.17-1.65.73-3.04-1.4-22.91-25.19-2.17-5.23-.79-3.63,1.95,2.18,11.3,6.35,3.33,3.02,3.13,5.06,1.65,2.13,1.95.86h2.02s1.59-.57,1.59-.57l.6-1.86-.93-3.91,1.9,2.77,1.62,6.94,1.44,1.39,2.76.03,1.89-.49.36-1.85-1.79-4.02ZM576.23,656.66l11.66,2.43,4.38,4.04,2.15,7.98-.26,2.53-1.21,1.4-2.19.58-3.12.11-15.74-3.46-4.82.71-4.58,2.13-4.52,3.79-7.09,9.73-2.54,1.5-3.87-.65-8.49-4.25v-1.45h1.89l-.6-2.37.56-1.83,1.24-1.3,1.45-.83-.67-.69-1.27-1.82-.72-.65,2.96-3.37,1.73-.87,1.68,1.06.98-1.73-.98-3.18,2.15.2,3.22,2.25,1.98.73,1.33-.26,4.34-1.82,1.62-1.11-.72-2.3-.03-1.87.59-1.39,1.14-.8v-1.59l-4.35-3.13-1.18-1.64-.68-2.33.46-1.6,1.46-.83h2.41l2.89,5.17,4.47,2.05,10.9.71ZM255.85,669.38l1.93,3.66,5.22,16.01-.09,2.27-1.86.5-3.79-.11-1.98,1.05-2.6,2.07-2.6,1.48-1.92-.72-2.19-1.92-6.13-1.95-2.24-1.6v-1.58l3.54-1.79,4.18,1.83,4.21,2.98,3.68,1.73v-1.59l-6.37-5.63-6.05-2.17-1.38-.12-1.33.51-1.92,1.92-1.3.76-5.2-.29-4.5-3.65-2.62-6.09.42-7.54h-.83v-1.45l2.95,2.07,3.16,3.64,3.11,2.72,2.68-.63-.56-.82-.88-1.59-.52-1.53.52-.68.73-.51-.92-1.14-5.53-3.95-.92-1.86,1.64-2.22v-1.59l-10.46.99-1.82-.2-1.32-1.02-1.62-.24-1.42-.59-.71-2.13.48-1.03,2.51-1.89.71-1.84-2.45.11-2.21.85-2.15.39-2.28-1.35v-1.72l11.75-5.63,4.7-.74,5.53,1.08,7.93,9.47,4.23,2.3,5.9.94,4.25,2.59,3.41,4.02,3.3,5.16ZM368.19,653.49l.93-6.58,4.46-11.53,5.16-8.9,2.99,1.39-6.36,28.79-2.54,7.64-6.95,13.98-12.88,42.83-1.3,2.85-1.83.99-3.15.11-1.59-2.2-3.39-13.61-1.45-2.53-1.79-2.04-4.13-3.45,3.23-.23,2.07-.9,1.68-1.95,2.1-3.39,1.24-3.89.78-1.11,1.26,1.18.67.37,3.4-1.16-.3-2.29-.59-2.6-1.17,1-1.15.33-1.13-.33-1.19-1,1.87-5.58,2.83-4.14,7.43-8.69,3.21-2.33,7.57-11ZM596.22,68.34l-.63,1.16-.28.8-.29.63-.62.61.98,3.42.36,2.16-.4,1.98-1.39,2.85-2.86,4.71-.82,2.32.5,1.93v1.43l.38,2.78-2.12,2.44-1.42,2-1.87,1.76-6.53-1.79-5.43-.39-7.41-2.95-9.14-5.71-10.36-3-10.82-8.87-2.05-2.84,1.71-4.97.58-9.81.57-14.25.46-2.38,1.11-2.56,2.6-4.66,1.07-3.49.93-4.03,1.17-2.46,1.82,1.26,5.38,7.85,1.86,2.04,2.99,3.16,5.01,3.51,5.03,4.08,3.67-.81,2.54.73,2.18,4.7,1.43,1.78,1.65,1.07,9.55,6.83,6.27,2.13,2.63,2.86ZM51.43,583l-3.29,1.34-3.51-3.7-3.06-5.75-4.18-11.14-.89-5.08,1.34-3.35,4.51-1.21.5,6.99,2.21,1.21,2.71-.47,1.93,1.9-.04,2.76-1.71,5.25.36,2.35,1.01,2.58.93,4.38,1.19,1.94ZM343.06,648.73h-5.97l-2.22.4-2.48,1.17-2.3,1.78-1.66,2.27-2.42,2.42-2.85-.37-5.23-2.92-8.91-.72-2.9-.87-1.29-.89-1.04-1.05-1.17-.86-1.55-.36-3.33.32-1.76-.18-10.46-6.66-3.86-.34-1.02,1.77-.08,5.08-2.01-1.54-3.13-3.68-2.21-1.3-2.73-.06-5.03,1.28-2.34-1.22,10.21-7.83,1.79-3.33-2.31-3.31-1.67-3.82-1.76-3.07-2.52-1.08-2,.58-1.52.86-1.56.59-2.2-.29-3.02-3.11-1.73-.71-1.6,2.08.39,3.65,4.62,7.1-.47,3.89-.66.29-4.68-.77-.35-.66.19-.95-.03-1.26.38.17.37-.94-.13-1.97-1.93-5.18-.3-2.5.3-2.46.86-2.25-.16-1.85-2.05-1.25-5.34-1.35-1.68-1.07-1.49-1.31-.64-1.14-.28-1.28-1.24-2.11-.3-1.41.3-1.43,1.24-2.12.28-1.32-.28-2.57-1.24-4.11-.3-1.33.41-8.07-1.37-1.05-2.08-.17-3.87.42-1.77-.69-1.89-1.68-3.24-4.2,2.24-.84,2.49-.3,2.19-.88,1.33-2.63-7.27-3.21,1.1.23,3.45-.23-1.38-2.76-2.43-1.49-5.29-.72-1.87-.78-4.51-5.64v-1.47l3.57,1.63,3.76,3.29,3.71,2.42,3.45-.91-13.16-11.76-4.94-1.09,1.02-2.45,1.28-.98,1.5-.52,1.73-1.04,4.98-6.45,7.19-1.45,2.44.44.46,1.25.06,1.98,1.17,2.62,6.4,3.52,6.94-2.48,13.19-9.09,17.22-5.78,5.86-4.34,3.28-1.15,3.58-.26,1.06.26.09.71.83,3.35.07.76,1.87-.7.47-1.79-.44-4.83,1.84-.5,4.1,1.92,9.19,6.41,2.08,2.58,1.65,2.9,1.17,1.55,1.26.68,2.44.3,2.21.83,4.03,2.84-2.18-.88h-2.08l-1.54,1.23-.61,2.77.49,1.04,1.96,1.58.28,1.41-.69,1.97-1.09.54-1.33.09-1.43.63-4.99,7.21,2.19,3.93,4.73-.22,2.62-5.23,1.5.4,8.58-4.49,5.04-1.6.59-.74-.26-1.61-.65-1.61-.62-.73-1.19-.32-1.28-.81-1.07-1.08-.55-1.16.39-2.07,1.66.78,1.77,1.82.74,1.08,1.69-2.62-.43-3.71-1.29-4.15-.88-4.02.65,1.09,2.06,2.14.05-3.98-.88-5.86.02-1.58,2.54-.14,3.9,4.42,6.29,10.52.26,1.51.13,2.1.29,1.87.68.8.32.52,2.84,2.85.85,3.25-.28,1.9-1.23,1.32-3.88,2.53-6.19,2.69-9.2-.86-2.28.5-1.58,1.4-.72,2.99,1.24,1.49,2.14.09,1.97-1.22-.62-1.22-.14-.75.99-2.41,2.63.66,8.95,2.11,1.99,1.8,13.15,19.2.86,2.06,3.37,10.12.79,3.82h-.99l-1.57-2.48-2.43-1.6-2.21.65-.98,4.18.76,2.87,3.55,5.72,1.06,3.48.25,5.03-.34,4.62-.89,3.95-2.03,4.78-.39,1.74-.16,4.67-.43,1.23-3.27,4.41-1.26,2.85-.89,2.66-1.2,2.29-2.11,1.76-1.63.4-5.24-.4ZM602.67,502.24l7.74,19.53.1,1.01-4.68,5.43-2.03.62-2.46,1.5-2.24,1.87-1.45,1.73-2.88.84-2.86-4.44-1.91-6.47-.04-5.31,1.44-3,1.72-2,1.71-1.56,1.41-1.66,1.43-2.94,2.25-5.89,1.78-2.31.55,1.42.21.64.22,1.02ZM328.83,459.98l1.82-2.99,1.06-3.73-.11-4.05-1.78-3.99-2.44-1.77-2.7-1.16-1.72-2.53.42-5.93,1.37-3.11,2.02-2.1,1.71.52.99,10,2.14,4.13,3,2.68,3.39,1.05-1.18,2.35-.53,2.53.13,2.51.67,2.36,2.3,3.27,1.59-.95,1.14-2.54.94-1.41.4,1.59-1.9,3.48-3.57,4.66-.66,4.29.14,7.92-1.3,4.15-4.31,4.05-4.67-1.29-3.58-5.54-1.16-8.71.76-4.81,1.39-1.99,1.93-1.01,2.3-1.94ZM526.05,688.55l2.47-.31,2.58-.81,2.42-.06,2.05,1.97,3.74,5.72,4.03,4.72v1.44l-11.78,9.7-1.94,2.23-5.21,10-.7,1.91-1.33.97-3.58,4.34-1.41,1-1.94,3.21-.07,7.32,1.5,13.07-.32,8.25-2.66.27-2.78-3.54-.61-3.26-1.91-2.62-4.36-8.63-1-2.92.19-4.79,1.6-3.71,3.66-5.83-2.7-.58-1.87-1.28-.47-2.36,1.4-3.81-1.52-.9-.82-1.19-1.3-2.65-6.18-6.48-.49-1.06-.6-1.93-.28-1.86.16-1.24-.03-1.24-.85-1.85-2.32-2.69-2.06-1.64-1.45-2.29-.54-4.61-.03-4.25-.44-3.28-1.34-2.29-2.73-1.29v-1.71l5.1-4.08,1.27-.55,1.91.71,2.58,3.19,1.46.73,1.44-.91,3.04-3.26.56.34.87,1.29,1.89-1.06,2.71-2.75v-1.45l-1.4-1.82-2.5-7.1-1.56-2.36-8.94-4.27-2.54-.49-.71-.49-1.77-2.19-1.1-.48-8.42-.49-2.52-1.39-2.17-2.05-1.93-2.59,7.15,1.54,14.07,6.57,6.96,1.57-2.95-5.4-8.25-6.21-3.44-5.88,11.5-2.13.75-.94-.35-1.87-2.87-2.41-7.58.57-2.28-3.07,1.97-2.11,1.13-2.74-.22-2.68-2.06-1.91-3,.06-2.24,2.04-1.92,2.59-1.92,1.71-1.76-.15-4.91-2.26-10.01-2.52-2.42-1.46-1.82.97-9.21-4.15-1.71.42-3.64,2.09-1.87.67h-9.18v1.6l2.73,1.6-4.61-.17-3.32-1.22-2.08-3.32-.91-6.46,1.94,1.44,1.96.09,1.63-1.51.83-3.22-1.36,1.05-1.42.51-3.12.18-.42-1.28.37-5.71-.86-1.29-2.39-1.46-7.33-6.78-1.24-2.18,1.21-.57,1.93-.23,1.57-.8.25-2.39-1.04-1.16-1.91-.55-2.05-.1-1.36.22-.92,1.27-.61,1.97-.98,1.55h-2.05l-.83-1.05-1.89-5.21v-1.74l3.58.36,1.91-.18,1.33-.98,1.17-1.54,1.53-1.26,1.67-.89,1.54-.32,2.81-1.27,1.31-2.81-.14-2.81-1.63-1.28.52-2.38-1.12-5.29-2.67-8.38-1.67-2.93-1.7-1.98-2.07-1.13-2.74-.39-2.37,1.72-1.52.46-.65-1.3.25-3.17.77-1.72,1.28-.67,1.79-.15,3.51-1.32,1.4-3.4-.37-4.44-1.81-4.52-5.89-7.48-6.48-3.9-14.55-3.94v-1.77l21.01,1.77-2.22-3.98-8.31-3.63-3.2-2.09-1.38-2.3-.8-1.79-1.07-1.41-2.21-1.12-6.95-.52-2.12-1.24v-1.48l20.98,3.24,4.35-.75,8.32-3.34,4.61-.75v1.6l-1.47-.21-1.41.1-1.37.52-1.2,1.07,2.09,4.14,3.45,3.24,3.89,1.19,3.38-1.94-5.54-4.86,1.82-1.77,1.25,1.28,2.22.56,4.8-.08,2.16-.87,4.53-3.27,4.56-1.04,2.07-1.16,1.57-2.21.65-3.52.14-1.85.63-3.27.13-1.51-.48-1.88-2.32-3.41-.83-1.92,3.39,2.27,3.27.56,3.1-1.32,2.88-3.28,4.55,1.01,3.68-6.46.7-9.41-4.41-7.88-3.86-1.63-8.54-.63-10.62-4.05-3.01-2.65-1.24-4.2,17.04,8.25,3.51-.84,20.53,3.26,2.44,2.33,5.53-.32,9.4-2.91,4.85-3.01,2.73-.54,1.53,2.07-.59,2.38-3.74,4.54-1.14,2.85,1.56,2.49-.87,1.58-2.14.35-2.19-1.16.28-.87.54-2.38-4.24.23-1.72.94-1.3,2.08,6.6,11.67,2.52,6.51-1.86,4.69-2.03.36-4.15-1.14-1.99.78-2.44,3.54-1.56,1.3-2.46.03v1.77l2.2.71,6.57-.71,1.79-.81,2.1-1.65,2.34-1.25,2.45.31.89,1.89,1.39,3.9,1.04,3.82-.13,1.74-10.71,1.95-2.36.98-.98,1.48,1.69,1.9,1.92.29,5.98-.46,1.27-.57,1.01-1.2,2.22,2.29,3.23,4.8.95,3.12-.09,1.17-.78,1.43-1.08,3.98,2.37-2.24,1.72-2.24,5.56-12.26.28-.3.14-.15-.29-1.7-1.24-3.01-.29-.89.42-2.72,1.03-3.42,2.19-5.33,1.98-2.12,4.71-1.36,2.38-1.39,2.17-6.71-2.73-7.76-3.14-6.98.98-4.53,2.38.2,4.69,5.02,2.48,1.29,1.28,1.03-.04,2.39-.54,2.67-.24,1.86.57,3.01.51,1.08.63.73,1.01,1.83,2.5,6.93,2.36,9.79.39,9.17-3.44,5.03-4.81-1.75-2.31.33-.97,3.91-.95,2.72-4.68,4.56-1.71,3.31,2.7.6,3.82-1.77,3.07-3.26.4-3.78,2.12-.9,2.19.7,1.91,2.01,1.13,3.01-4.14-1.43-.55.55.83,2.17,2.03,1.65,4.49,1.91,1.17-4.96,3.06-7.52.4-5.29-5.54-25.92v-8.41l-.49-3.4-3.15-12.7-2.07-3.32-2.42-1.27-2.89.17-10.18,4.19-3.84.7-2.24-2.1,2.25-5.85,6.89-5.94,12.67-7.89,20.36-17.45,10.62-5.99,11.1.44,11.51,6.67h9.48l2.57,1.4,4.66,4.25,3.96,1.7,6.9,5.85-1.8,3.76-5.46,7.51-1.95,4.03-3.62,9.49-1.71,2.76v1.77l3.67,5.38,1.89,3.66.81,3.08.61,4.47,1.45,5.22,1.82,4.68,1.67,2.88-.56,2.32-.28,3.17-.15,5.04-.76,4.09-.15,1.58.17,1.14.48,1.21,1.26,2.51-2.8,3.67-5.35,10.45-5.03,3.51-.87,2.89-1.28,2.82-2.95,1.02-2.19-.79-1.57-1.31-1.74-1.05-2.68-.09-9.62,5.62-2.57,2.7-8.48,8.9-.02.03-6.67,13.82,3.57,12.38,6.47,5.8,2.28.77,8.19.58,2.23,1.02,5.77,4.92,3.01,3.63,1.31,3.48.23,4.03.61,3.4,1.89,6.31-1.97,2.48-.75.73-6.95,4.97-27.92,6.58-2.1,2.3-3.42,2.19-2.7,3.96-1.6,4.75.79,3.97-1.01,2.01-1.13.86-1.18-.19-1.25-1.08.99-5.02-1.53-3.17-2.7-.87-2.61,1.9-1.19,1.14-1.04.4-.71.82-.29,2.41.73.96,3.83,3.02,11.17.98,5.07,1.73,1.11,5.41-.75,2.3-.85.97-.98.49-1.15.88-2.75,1.53-1.32,1.23.96.57,5.01,11.11-.14,4.42-1.78,2.39-2.73.96-3.12.18-2.06.82-4.47,3.46-3.06.62-4.65-1.96-7.22-6.88-4.49-.84-.09,1.11.22.26h.36s.4.22.4.22l-.73.46-.4.54-.5.47-1,.27.59,4.43-.95,2.65-1.25,2.29-.29,3.33.98,2.6,1.76,1.54,2.02.25,1.69-1.34-.35-.85-.65-2.19,1.16-.15,3.39-1.56,1.08,1.29,1.9,4.26.26.92,1.24.92,4.32,4.25,2.19,1.14ZM455.71,260.7l-.36-3.57,1.51-1.28,11.36-1.22,5.77-2.25v1.82l-.56.04-.43.33-.82,1.14-2.36,1.13-1.83,2.47-1.56,2.75-1.53,2.1-2.24.92-2.73-.3-2.55-1.47-1.65-2.61ZM97.96,248.93l-1.76,2.26-5.52,4.52-.68,4.19-10.62,2.95-3.73,2.06-1.32-.71-3.55-7.99-1.45-2-3.27-3.48-3.2-1.64-.84-.15-4.13,1.59-1.37-.23.46-2.88.63-1.22,1-1.04,1.19-.77,1.26-.3.61-1.07-.22-2.35-.48-2.31-.37-.93,3.7-2.8,9.43-1.34,3.33-4.34-1.67.17-1.66-.18-1.57-.54-1.45-.96.75-2.32,2.67-3.61,1.12-2.56-.43.2-.28-2.01-.17-4.01.42-.85,1.03-.07,1.18.17.91-.08,3.82-1.45,7.81-1.31,3.9-2.23,2.92,1.02,2.68-3.52,4.49-9.35,3.06,1.99,1.95-2.74,1.5-3.2,1.68.6-.77,1.97-1.56,3.05-.39,1.81.26,1.06,1.33,3.4.3,2.07-.3.52-1.59,7.97-1.07,3.04-.68,1.1-.98.85-.03-2.9-.67-1.87-1.02-1.15-1.01-.74-3.15,2.6-.55.89-.42,2.57.35,1.57.61,1.13.46,1.25,1.08,8.13,1.17,2.5,2.29,1.01-.85,1.22-.85.56-.94.13-1.07-.07.99.71.9.93-1.77,2.72-2.01,5.52-1.76,3.27ZM406.46,104.62l3.67-.09,1.54.59,1.15,1.19.95,3-.1,2.61-.98,2.11-2.96-.62-3.15-1.13-10.21,2.48,2.15,1.84,1.53,3.67-.41,4-3.19,3.56-1.82,3-1.12,3.32-2.17,2.66-4.12.99-2.66-2.17-3.48-6.65-4.7-.9-3.69-1.97-2.36-2.29-2.14-2.47v-1.54l4.45-.98,4.37-4.3,3.37-3.05,5.36-.33,3.09-.96,2.35-2.67,9.88.07,5.39-2.95Z"/>
  </g>
  <g id="dot1">
    <rect class="cls-1" x="84.1" y="338.55" width="16.56" height="16.56" rx="8.28" ry="8.28"/>
  </g>
  <g id="dot2">
    <rect class="cls-1" x="204.85" y="440.39" width="16.56" height="16.56" rx="8.28" ry="8.28"/>
  </g>
  <g id="dot3">
    <rect class="cls-1" x="254.72" y="308.13" width="16.56" height="16.56" rx="8.28" ry="8.28"/>
  </g>
  <g id="dot4">
    <rect class="cls-1" x="232.3" y="183.25" width="16.56" height="16.56" rx="8.28" ry="8.28"/>
  </g>
  <g id="dot5">
    <rect class="cls-1" x="75.82" y="626.49" width="16.56" height="16.56" rx="8.28" ry="8.28"/>
  </g>
  <g id="dot6">
    <rect class="cls-1" x="438.79" y="580.45" width="16.56" height="16.56" rx="8.28" ry="8.28"/>
  </g>
</svg>